<?xml version="1.0" standalone="no"?>
<!DOCTYPE svg PUBLIC "-//W3C//DTD SVG 20010904//EN"
 "http://www.w3.org/TR/2001/REC-SVG-20010904/DTD/svg10.dtd">
<svg version="1.0" xmlns="http://www.w3.org/2000/svg"
 width="512.000000pt" height="512.000000pt" viewBox="0 0 512.000000 512.000000"
 preserveAspectRatio="xMidYMid meet">
<metadata>
Created by potrace 1.11, written by Peter Selinger 2001-2013
</metadata>
<g transform="translate(0.000000,512.000000) scale(0.100000,-0.100000)"
fill="#000000" stroke="none">
<path d="M2334 3305 c-4 -8 -10 -13 -14 -10 -5 3 -11 1 -14 -4 -4 -5 -1 -13 5
-17 8 -5 9 -3 4 7 -5 8 -4 10 0 6 12 -10 15 -38 4 -31 -11 6 -12 -9 -2 -20 4
-3 8 -17 9 -29 2 -12 0 -16 -2 -9 -3 6 -10 12 -15 12 -5 0 -4 -10 3 -22 14
-27 18 -68 6 -68 -4 0 -8 -5 -8 -11 0 -5 3 -8 8 -6 4 3 8 -13 8 -35 1 -25 -2
-34 -7 -26 -7 10 -9 9 -9 -4 0 -9 5 -20 10 -23 6 -3 10 -12 10 -18 0 -8 -3 -8
-9 2 -6 9 -8 5 -8 -14 0 -19 2 -23 8 -14 7 11 9 11 9 -2 0 -22 13 -25 95 -24
107 3 117 4 110 15 -3 6 -1 10 5 10 7 0 6 5 -3 14 -9 10 -35 13 -81 12 -60 -1
-68 1 -82 22 -13 19 -13 26 -2 40 7 9 8 13 3 10 -6 -4 -11 2 -11 12 0 14 9 18
46 18 115 1 135 3 115 12 -14 6 -16 9 -5 10 8 2 18 2 22 1 4 0 5 6 2 14 -4 8
-17 15 -29 15 -13 0 -27 5 -31 11 -5 8 -9 8 -14 -1 -4 -7 -13 -9 -19 -6 -6 4
-8 12 -5 18 4 7 2 8 -5 4 -6 -4 -8 -13 -4 -19 4 -8 1 -7 -9 1 -12 10 -18 10
-23 1 -6 -8 -10 -7 -17 5 -5 9 -13 14 -17 12 -4 -3 -8 5 -8 17 -2 17 0 19 7 7
5 -8 10 -10 10 -4 0 6 -3 14 -7 18 -4 3 -8 14 -9 22 -1 9 0 13 3 10 4 -3 15 2
26 11 11 10 17 12 13 5 -6 -10 8 -12 61 -10 70 3 70 3 64 47 0 5 -17 7 -36 5
-26 -2 -34 0 -28 9 5 9 3 9 -8 0 -15 -12 -68 -11 -89 2 -9 5 -11 4 -6 -3 4 -7
1 -12 -9 -12 -9 0 -13 5 -10 10 3 6 4 10 0 10 -3 0 -8 -7 -11 -15z"/>
<path d="M1933 3303 c-18 -6 -18 -348 -1 -359 6 -4 14 -2 16 4 2 7 8 10 13 6
5 -3 9 68 9 174 0 182 -1 187 -37 175z"/>
<path d="M2042 3298 c-9 -4 -12 -7 -6 -7 6 -1 12 -12 12 -26 0 -14 -6 -25 -12
-25 -7 0 -7 -3 -1 -8 14 -10 15 -52 1 -52 -6 0 -5 -4 3 -9 13 -8 13 -12 0 -27
-8 -10 -9 -15 -3 -11 15 9 14 -65 -1 -75 -6 -5 -6 -8 2 -8 14 0 13 -42 -2 -52
-6 -5 -6 -8 3 -8 6 0 12 -10 12 -23 0 -22 3 -22 100 -22 89 -1 100 1 100 17 0
10 0 21 0 26 0 4 -36 7 -81 8 -58 0 -83 5 -90 15 -6 9 -3 18 7 25 11 9 12 13
3 16 -7 2 -13 14 -14 27 -1 19 2 22 22 18 12 -2 23 -1 23 2 0 3 29 6 64 5 60
-1 65 1 69 23 2 12 0 23 -5 23 -5 0 -6 5 -3 10 3 6 1 10 -4 10 -6 0 -11 -4
-11 -10 0 -5 -5 -10 -11 -10 -5 0 -7 6 -3 13 5 8 2 8 -9 -2 -14 -11 -17 -11
-17 0 0 11 -2 11 -10 -1 -7 -11 -10 -11 -10 -2 0 8 -5 10 -12 5 -19 -11 -39
-13 -32 -2 3 5 1 9 -5 9 -5 0 -12 -6 -14 -12 -4 -10 -6 -10 -6 0 -1 8 -6 10
-13 6 -9 -5 -8 -2 1 9 12 15 12 17 -1 12 -9 -4 -15 0 -15 9 0 8 4 13 9 10 12
-8 10 10 -3 23 -18 18 7 25 92 24 l79 -1 0 28 0 27 -95 0 c-53 0 -103 -3 -113
-7z"/>
<path d="M2614 3301 c-7 -8 -4 -351 4 -352 4 -1 51 -2 105 -3 l98 -1 -3 25
c-3 24 -6 25 -68 26 -36 1 -71 2 -77 3 -8 1 -12 18 -12 52 1 38 5 49 15 45 8
-3 14 -2 14 2 0 4 33 6 73 4 39 -2 68 0 62 5 -5 4 -10 19 -10 33 0 15 -6 25
-15 25 -8 0 -22 5 -30 10 -13 8 -13 7 -1 -8 8 -10 9 -17 3 -17 -6 0 -14 5 -17
10 -5 8 -11 7 -21 -1 -11 -9 -14 -8 -14 2 0 10 -2 11 -8 2 -4 -7 -16 -11 -27
-9 -16 2 -21 12 -23 49 -3 47 -3 47 30 48 116 4 123 4 121 17 -2 6 1 12 6 12
5 0 11 -6 14 -12 3 -7 4 -3 4 9 -1 12 -4 21 -7 21 -3 0 -7 1 -10 2 -9 5 -201
5 -206 1z"/>
<path d="M2510 3170 c-9 -6 -10 -10 -3 -10 6 0 15 5 18 10 8 12 4 12 -15 0z"/>
<path d="M2300 3139 c0 -5 5 -7 10 -4 6 3 10 8 10 11 0 2 -4 4 -10 4 -5 0 -10
-5 -10 -11z"/>
<path d="M761 2983 c-6 -7 -25 -13 -41 -13 -17 0 -30 -5 -30 -11 0 -5 -4 -7
-10 -4 -5 3 -10 1 -10 -5 0 -6 -4 -9 -8 -6 -10 6 -72 -51 -72 -65 0 -5 -6 -9
-12 -9 -7 0 -23 -16 -36 -36 -13 -20 -18 -33 -10 -29 7 3 5 0 -4 -8 -10 -8
-18 -24 -18 -36 0 -11 -4 -21 -8 -21 -10 0 -11 -5 -15 -99 -2 -53 1 -75 11
-78 9 -4 8 -9 -5 -19 -11 -9 -13 -13 -4 -12 7 2 15 -5 16 -15 2 -10 11 -27 19
-36 9 -10 16 -23 16 -30 0 -17 109 -121 127 -121 8 0 21 -7 29 -15 9 -8 27
-15 40 -15 18 0 23 -4 18 -12 -5 -8 0 -7 11 2 15 12 17 12 10 1 -6 -11 -4 -13
8 -8 9 3 19 3 21 -2 3 -4 27 -5 53 -1 26 4 55 5 63 3 13 -4 13 -4 0 6 -12 9
-9 11 15 12 17 1 33 1 38 0 4 0 7 7 7 16 0 14 2 15 9 4 6 -9 10 -10 12 -2 3 7
14 13 26 14 12 0 21 6 20 12 -1 5 4 9 11 7 6 -1 12 5 12 13 0 8 7 15 16 15 8
0 12 5 9 10 -3 6 3 14 14 18 11 4 19 9 18 12 -3 13 29 70 38 66 5 -2 11 12 13
32 1 19 8 42 15 51 6 8 7 12 1 8 -6 -3 -11 0 -11 7 0 8 6 12 14 9 11 -4 11 0
3 22 -6 17 -7 32 -2 37 5 5 7 21 4 36 -5 24 -6 25 -13 7 -6 -15 -8 -9 -8 21
-1 22 -7 46 -13 53 -10 11 -10 13 0 7 6 -4 12 -2 12 3 0 6 -7 11 -15 11 -10 0
-15 7 -13 18 2 10 -2 16 -10 14 -8 -1 -11 2 -8 7 4 5 -2 14 -11 20 -10 6 -15
11 -10 11 4 0 -10 17 -30 38 -21 22 -41 37 -45 35 -5 -2 -8 1 -8 7 0 6 -5 8
-10 5 -6 -3 -13 1 -16 9 -4 10 -19 16 -41 16 -19 0 -32 4 -29 8 6 10 1 11 -90
15 -48 2 -75 -1 -83 -10z m136 -47 c12 0 20 -2 18 -7 -3 -4 9 -9 27 -11 18 -2
32 -8 31 -13 -1 -6 8 -12 20 -12 11 -1 25 -9 29 -18 5 -8 13 -13 19 -10 5 4 9
1 9 -6 0 -6 10 -21 23 -33 12 -12 23 -28 25 -35 1 -7 9 -20 17 -28 17 -17 20
-27 5 -18 -6 4 -2 -9 8 -27 20 -36 26 -115 9 -135 -6 -9 -5 -13 4 -13 10 -1 9
-4 -3 -10 -10 -6 -15 -19 -13 -30 2 -13 -2 -20 -11 -20 -9 0 -14 -10 -14 -27
0 -22 -2 -25 -10 -13 -9 14 -10 12 -10 -15 0 -9 -36 -41 -53 -48 -9 -3 -17
-11 -17 -17 0 -5 -7 -10 -16 -10 -8 0 -12 -4 -9 -10 3 -6 -1 -7 -9 -4 -9 3
-16 2 -16 -4 0 -5 -11 -8 -25 -7 -17 2 -25 -2 -25 -13 0 -13 -2 -13 -13 3 -11
14 -16 15 -22 5 -5 -9 -4 -11 3 -6 7 4 12 2 12 -4 0 -6 -20 -10 -50 -9 -38 2
-50 6 -50 18 0 14 -2 14 -10 1 -5 -8 -10 -10 -10 -4 0 6 -10 10 -22 9 -33 -3
-48 5 -41 21 3 8 9 11 14 8 13 -8 236 -7 250 1 12 8 -14 36 -43 47 -9 4 -22
16 -28 27 -10 19 -8 21 27 22 21 1 46 0 56 -1 10 -1 26 4 35 12 11 9 14 10 8
1 -15 -26 12 -12 34 17 12 16 27 27 31 24 5 -3 9 5 9 16 0 16 4 20 16 16 10
-4 13 -2 7 7 -13 21 -13 39 1 28 9 -8 12 -1 10 31 -1 23 -8 46 -16 52 -16 12
-18 17 -18 41 0 8 -7 15 -15 15 -8 0 -14 3 -14 8 3 19 -2 25 -11 12 -6 -10
-10 -11 -10 -2 0 6 -7 12 -16 12 -8 0 -12 5 -9 10 4 6 -18 10 -59 10 -36 0
-67 3 -67 8 -1 4 -2 23 -3 42 -1 19 -6 41 -10 49 -6 10 -5 12 2 7 7 -4 12 -1
12 7 0 9 -12 17 -28 19 -37 5 -52 0 -52 -18 0 -8 -6 -14 -14 -14 -8 0 -16 -5
-18 -11 -2 -5 -22 -11 -45 -12 -34 -1 -40 -4 -31 -15 9 -10 8 -12 -3 -10 -8 2
-14 -4 -14 -12 0 -10 11 -15 38 -16 39 -1 73 -19 39 -20 -117 -6 -130 -8 -125
-21 4 -9 0 -13 -10 -11 -14 3 -67 -48 -67 -65 0 -5 -3 -6 -7 -4 -16 10 -8 -98
7 -111 12 -9 12 -12 1 -10 -7 2 -16 -3 -18 -11 -4 -9 0 -11 16 -6 15 5 21 2
21 -9 0 -9 5 -16 11 -16 5 0 7 -4 4 -10 -3 -5 3 -10 14 -10 10 0 21 -6 23 -12
3 -8 24 -14 49 -15 24 0 52 -2 62 -2 12 -1 17 -7 15 -18 -2 -10 -10 -17 -16
-15 -7 1 -12 -2 -12 -8 0 -5 -7 -10 -15 -10 -17 0 -38 -34 -27 -45 4 -4 -2 -5
-13 -3 -11 2 -19 10 -17 17 1 7 -3 11 -10 9 -13 -5 -48 26 -48 42 0 6 -4 10
-10 10 -5 0 -10 7 -10 15 0 8 -5 14 -12 13 -7 -2 -12 6 -13 18 0 11 -5 27 -12
35 -7 9 -12 49 -12 104 0 50 4 84 8 76 11 -17 22 9 16 39 -2 12 2 23 10 27 8
3 15 9 15 14 0 15 33 48 42 43 4 -3 8 1 8 8 0 8 14 22 30 31 17 10 30 22 30
28 0 5 4 9 10 9 5 0 7 -8 3 -17 -3 -12 0 -10 11 5 10 12 21 20 26 17 5 -3 11
-2 14 3 2 4 22 9 42 10 21 2 40 5 43 7 2 3 9 1 15 -3 6 -5 21 -7 33 -6z m-109
-226 c2 -19 1 -22 -7 -10 -5 8 -7 18 -5 22 3 4 0 8 -5 8 -15 0 -14 -13 3 -36
11 -15 12 -22 3 -33 -9 -12 -9 -13 1 -7 7 4 12 1 12 -9 0 -9 -4 -14 -9 -11
-10 7 -8 -9 4 -38 5 -12 3 -21 -6 -27 -10 -6 -10 -9 -1 -9 6 0 12 -5 12 -11 0
-5 -4 -8 -9 -4 -5 3 -13 0 -17 -6 -5 -9 -11 -6 -21 7 -8 10 -16 18 -18 17 -16
-9 -31 0 -32 19 -1 13 -7 24 -13 26 -5 2 -10 10 -10 18 0 9 5 13 13 9 6 -4 3
1 -7 9 -17 14 -18 16 -3 16 9 0 17 6 17 13 0 6 10 23 21 37 11 14 17 18 13 10
-5 -11 -1 -10 12 3 25 23 48 18 52 -13z m147 20 c4 -6 -1 -7 -12 -4 -15 5 -16
4 -3 -5 8 -6 23 -11 33 -11 9 0 17 -7 17 -15 0 -8 5 -15 11 -15 5 0 7 -4 4
-10 -3 -5 -1 -10 4 -10 6 0 11 -5 11 -11 0 -5 -6 -7 -12 -3 -10 6 -10 5 -1 -7
9 -11 8 -22 -4 -47 -8 -17 -20 -32 -25 -32 -5 0 -16 -7 -25 -15 -28 -29 -39
-2 -37 92 1 48 2 91 3 96 2 10 29 9 36 -3z"/>
<path d="M3176 2942 c-3 -5 1 -9 9 -9 8 0 12 4 9 9 -3 4 -7 8 -9 8 -2 0 -6 -4
-9 -8z"/>
<path d="M3190 2923 c-68 -10 -69 -11 -66 -48 3 -41 -4 -55 -30 -59 -13 -2
-19 -11 -19 -27 1 -17 6 -23 17 -21 9 1 20 -3 23 -9 4 -6 8 -70 9 -142 1 -94
5 -132 14 -135 6 -2 12 -10 12 -17 0 -8 9 -12 24 -11 18 2 23 -1 19 -12 -4
-10 -1 -13 8 -10 8 3 13 11 11 17 -1 7 2 10 8 6 6 -3 8 -10 6 -14 -3 -4 1 -8
9 -8 8 0 16 6 19 14 3 7 15 13 26 13 11 0 20 7 20 15 0 8 -5 15 -11 15 -5 0
-7 5 -4 10 4 6 -10 10 -34 10 -49 0 -50 3 -49 145 l1 110 32 -1 c20 -1 38 5
46 15 19 24 22 42 7 40 -36 -4 -88 2 -88 12 0 5 6 7 13 3 8 -6 8 -3 -1 9 -8 9
-10 22 -6 29 6 10 16 65 10 57 -1 -1 -12 -3 -26 -6z"/>
<path d="M1362 2829 c-8 -9 -23 -14 -33 -12 -13 4 -19 0 -19 -11 0 -9 -7 -16
-15 -16 -8 0 -14 -3 -14 -7 4 -22 -2 -43 -10 -38 -16 9 -21 -25 -18 -119 2
-60 6 -91 15 -94 6 -2 12 -13 12 -25 0 -18 2 -19 10 -7 8 13 10 12 10 -2 0
-10 5 -18 11 -18 5 0 8 -4 5 -8 -3 -5 0 -9 7 -9 22 -1 42 -8 49 -18 4 -5 20
-10 37 -10 21 -1 27 3 21 10 -7 8 -1 12 21 12 17 0 34 4 37 10 4 5 16 15 27
21 12 7 14 12 6 12 -11 0 -11 3 0 17 10 11 10 14 2 9 -8 -4 -13 -1 -13 9 0 12
-4 13 -17 7 -10 -5 -23 -7 -30 -5 -6 2 -15 -1 -19 -8 -5 -8 -3 -9 6 -4 8 5 11
4 7 -1 -3 -6 -22 -11 -41 -12 -27 -2 -36 1 -36 13 0 10 -5 13 -12 9 -7 -4 -10
-3 -5 1 4 5 -1 17 -10 28 -13 15 -14 18 -3 12 13 -8 13 -7 0 9 -15 20 -23 69
-8 60 12 -8 10 10 -4 25 -8 8 -8 11 -2 8 7 -4 14 2 17 14 5 18 3 18 -11 7 -12
-9 -11 -5 3 12 48 59 64 66 94 45 12 -8 13 -7 7 5 -4 9 -1 8 7 -2 19 -23 34
-23 47 1 22 43 9 69 -32 62 -5 0 -8 3 -8 8 0 5 -19 11 -42 13 -30 3 -46 -1
-56 -13z"/>
<path d="M1632 2828 c-2 -10 -8 -16 -12 -13 -12 8 -41 -6 -34 -16 3 -5 -2 -9
-10 -9 -9 0 -16 -9 -16 -21 0 -11 -4 -18 -8 -15 -11 6 -11 1 -16 -102 -1 -45
1 -85 5 -88 5 -2 5 -12 2 -21 -5 -12 -3 -14 7 -8 10 6 12 4 7 -8 -3 -10 -3
-17 1 -17 4 0 20 -12 35 -26 28 -26 43 -32 82 -33 17 -1 18 -3 5 -11 -12 -8
-10 -9 7 -7 12 2 26 7 30 12 5 4 1 5 -7 0 -8 -5 -12 -4 -8 0 5 5 20 10 35 11
15 2 29 8 31 14 2 5 11 10 20 10 22 0 63 71 57 99 -2 11 1 24 7 27 7 4 8 2 4
-4 -4 -7 -2 -12 3 -12 14 0 14 17 1 25 -6 3 -7 14 -2 23 11 25 8 58 -7 76 -7
9 -10 16 -6 16 8 0 -16 39 -43 71 -9 10 -21 19 -27 19 -6 0 -16 5 -22 11 -6 6
-35 12 -64 13 -42 1 -53 -2 -57 -16z m122 -102 c15 -33 16 -122 2 -145 -7 -11
-6 -12 5 -6 16 9 -17 -33 -41 -52 -21 -17 -47 -16 -54 3 -4 9 -9 14 -13 11 -9
-10 -33 42 -26 58 3 9 1 21 -4 28 -6 6 -9 26 -8 42 3 44 4 47 14 41 4 -3 8 2
8 12 0 36 4 42 24 42 11 0 18 4 15 9 -4 5 10 4 29 -1 23 -8 39 -21 49 -42z
m101 -26 c3 -5 1 -10 -4 -10 -6 0 -11 5 -11 10 0 6 2 10 4 10 3 0 8 -4 11 -10z"/>
<path d="M2039 2841 c-8 -2 -17 -8 -20 -13 -9 -14 -47 -18 -52 -5 -3 7 -17 13
-31 15 -19 1 -25 -2 -20 -11 5 -7 0 -6 -11 3 -11 9 -16 10 -11 2 4 -7 1 -15
-8 -18 -9 -3 -16 -10 -16 -16 0 -5 5 -6 10 -3 11 7 11 8 13 -200 2 -123 5
-149 16 -147 8 2 18 -3 22 -10 7 -10 9 -9 9 5 0 9 5 17 11 17 5 0 8 -4 4 -9
-3 -5 -2 -12 3 -15 11 -6 12 8 13 107 0 53 4 75 11 71 7 -5 8 -2 2 7 -5 8 -9
34 -9 59 -1 43 1 46 40 66 36 19 42 20 58 6 10 -9 15 -22 12 -29 -3 -8 0 -11
6 -8 7 5 9 -36 7 -129 l-3 -136 23 0 c15 0 21 -4 17 -12 -4 -7 0 -5 8 5 8 9
18 17 23 17 5 0 9 55 9 123 -1 138 1 157 22 157 8 0 11 5 7 13 -4 6 -4 9 1 5
4 -4 16 -3 26 3 15 8 21 6 26 -6 5 -13 7 -14 14 -3 6 8 9 -6 10 -37 1 -27 2
-59 3 -70 0 -11 -2 -30 -6 -42 -4 -13 -4 -23 0 -23 8 0 7 -84 -2 -98 -7 -12
20 -36 33 -28 5 4 13 1 17 -5 4 -7 3 -9 -4 -5 -6 3 -13 2 -16 -3 -5 -8 15 -8
34 -1 3 1 9 2 13 1 5 -1 6 3 3 8 -4 5 3 12 14 16 11 4 17 11 14 17 -4 7 -9 7
-13 -1 -4 -6 -7 18 -7 53 1 35 4 62 9 59 4 -2 7 3 7 12 0 9 -4 14 -8 11 -4 -2
-8 28 -7 69 0 46 4 71 10 67 6 -3 2 4 -8 16 -11 11 -16 26 -12 31 3 6 -1 11
-9 11 -9 0 -16 5 -16 11 0 6 -7 8 -16 5 -8 -3 -12 -2 -9 4 7 11 -3 13 -55 10
-19 -1 -36 -6 -38 -11 -2 -5 -10 -9 -18 -9 -8 0 -17 -7 -20 -15 -4 -8 -10 -15
-16 -15 -5 0 -6 5 -3 10 3 6 0 10 -8 10 -8 0 -17 6 -20 14 -6 14 -64 25 -88
17z"/>
<path d="M2471 2844 c0 -6 -12 -9 -25 -7 -13 3 -32 0 -43 -6 -13 -7 -14 -10
-4 -11 11 0 9 -4 -5 -15 -13 -10 -14 -13 -3 -10 10 4 16 0 16 -10 0 -8 -5 -15
-11 -15 -7 0 -8 -3 -1 -8 14 -10 15 -195 1 -204 -8 -6 -8 -8 1 -8 10 0 12 -80
3 -115 -1 -5 -1 -14 0 -20 2 -5 3 -32 4 -60 1 -48 2 -50 32 -52 39 -3 50 19
48 99 -1 66 14 80 47 45 16 -16 20 -18 16 -5 -4 12 -2 15 8 11 8 -3 13 -8 10
-12 -2 -4 2 -8 10 -8 8 0 15 7 15 16 0 14 2 14 10 1 7 -11 10 -11 10 -2 0 7 4
10 10 7 5 -3 21 5 34 18 14 14 28 22 33 18 4 -3 5 -2 1 3 -4 5 0 23 10 40 10
17 17 45 17 61 0 17 4 33 10 37 7 5 6 8 -1 8 -6 0 -10 19 -9 46 1 32 -2 47
-12 51 -12 5 -12 7 -1 14 10 7 10 9 1 9 -7 0 -13 7 -13 15 0 8 -7 15 -15 15
-8 0 -15 7 -15 15 0 8 -6 14 -12 13 -7 -2 -12 2 -11 7 1 6 -12 12 -28 13 -17
1 -33 3 -37 3 -4 1 -20 1 -37 0 -23 -1 -27 -3 -15 -11 12 -8 9 -10 -12 -10
-17 0 -28 6 -31 18 -3 9 -5 12 -6 6z m119 -84 c3 -1 8 -2 13 -1 8 1 10 -14 7
-43 -1 -11 3 -15 9 -12 11 7 15 -20 12 -74 -2 -43 -4 -50 -13 -50 -4 0 -8 -12
-8 -26 0 -14 -4 -23 -9 -20 -5 3 -11 0 -14 -7 -7 -19 -57 -20 -57 -1 0 8 -4
13 -9 10 -5 -4 -15 -4 -23 -1 -20 8 -19 186 2 207 23 22 60 30 90 18z"/>
<path d="M3407 2838 c-9 -5 -17 -6 -17 -3 0 4 -7 -1 -16 -9 -8 -9 -20 -14 -25
-11 -5 4 -6 -2 -2 -11 4 -11 2 -15 -4 -11 -6 4 -13 -3 -16 -14 -3 -12 -10 -18
-17 -14 -6 4 -11 1 -9 -6 3 -26 -3 -74 -8 -61 -2 6 -9 9 -14 6 -6 -3 -5 -12 2
-21 8 -9 9 -17 3 -21 -11 -9 -14 -53 -2 -46 4 3 8 2 9 -3 0 -4 3 -21 6 -38 2
-16 5 -38 6 -47 1 -9 5 -14 10 -11 5 3 11 -4 14 -16 3 -11 9 -19 13 -16 4 3
11 -2 14 -11 3 -8 10 -12 16 -9 5 3 10 2 10 -4 0 -5 11 -8 25 -6 18 1 22 -1
16 -9 -7 -8 -4 -12 10 -13 11 -1 17 2 14 7 -6 10 15 8 33 -3 8 -6 12 -2 12 10
0 15 2 16 10 3 7 -12 12 -12 22 -2 6 6 20 12 31 12 10 0 16 4 13 9 -4 5 -2 11
4 13 17 5 21 48 4 49 -56 5 -71 3 -67 -8 4 -9 -7 -13 -36 -13 -29 0 -41 4 -41
15 0 9 -6 12 -15 9 -10 -4 -15 0 -15 11 0 9 -4 13 -10 10 -6 -4 -10 7 -10 24
0 34 -1 33 95 32 27 0 56 5 64 12 10 8 12 8 8 1 -4 -7 3 -11 19 -11 17 0 24 4
20 13 -3 8 0 13 6 11 6 -1 13 4 16 12 2 8 0 11 -5 8 -5 -3 -10 0 -10 8 0 8 3
12 7 10 4 -2 7 2 7 10 0 8 -4 12 -8 10 -3 -3 -9 4 -12 16 -5 18 -3 18 11 7 16
-12 16 -11 1 7 -9 11 -20 30 -23 43 -4 12 -12 22 -17 22 -6 0 -7 5 -4 10 3 6
-1 10 -9 10 -9 0 -16 5 -16 11 0 5 -4 7 -10 4 -5 -3 -10 -2 -10 4 0 5 -8 9
-17 9 -10 0 -30 2 -44 5 -14 3 -33 1 -42 -5z m78 -88 c11 -8 21 -25 21 -37 1
-22 -3 -23 -62 -23 -62 0 -64 1 -62 25 1 14 8 25 15 25 7 0 12 3 12 8 -3 16 2
19 29 18 15 -1 36 -8 47 -16z"/>
<path d="M3766 2842 c-15 -3 -16 -6 -5 -13 12 -7 12 -9 0 -9 -8 0 -20 -8 -28
-17 -8 -10 -12 -12 -8 -5 3 6 1 12 -4 12 -6 0 -11 6 -11 13 0 7 -11 14 -25 15
-14 1 -25 -3 -25 -8 0 -6 -6 -10 -13 -10 -16 0 -18 -81 -3 -92 7 -5 7 -8 1 -8
-6 0 -10 -50 -9 -132 l0 -132 39 1 c42 1 70 26 59 53 -4 8 -6 28 -5 43 1 16
-2 26 -7 23 -5 -3 -9 1 -9 9 0 8 3 12 7 10 4 -2 7 9 8 25 0 17 -4 30 -11 30
-6 0 -2 7 9 15 19 15 19 15 -1 9 -19 -5 -19 -5 -2 9 20 16 23 32 5 21 -16 -10
11 26 32 43 10 8 20 8 34 1 10 -6 16 -6 13 -1 -4 6 3 20 14 32 11 12 19 29 17
38 -3 18 -42 31 -72 25z m-44 -358 c-9 -16 -10 -14 -9 8 1 15 6 23 11 18 4 -4
4 -16 -2 -26z"/>
<path d="M2776 2825 c-19 -15 -29 -62 -14 -71 4 -3 3 -15 -2 -28 -6 -16 -5
-28 3 -36 10 -10 8 -12 -5 -7 -22 8 -24 -9 -2 -17 8 -3 12 -10 9 -16 -4 -6
-12 -7 -18 -3 -7 3 -5 -2 4 -13 17 -21 14 -58 -4 -48 -7 3 -4 -1 6 -9 12 -10
15 -17 7 -22 -8 -5 -7 -11 2 -23 11 -13 11 -14 -2 -7 -13 8 -13 7 -1 -8 7 -9
10 -17 7 -17 -4 0 10 -16 31 -35 37 -34 54 -38 82 -20 10 5 16 4 19 -3 3 -9 7
-9 17 1 39 34 44 37 51 26 4 -8 9 -7 15 2 7 11 9 10 9 -3 0 -10 5 -18 11 -18
5 0 7 -6 4 -12 -4 -7 1 -4 10 7 9 11 18 19 22 17 3 -2 11 8 18 22 9 17 10 25
2 23 -8 -1 -11 44 -11 156 1 136 -1 157 -15 158 -12 0 -11 3 4 9 15 7 11 9
-20 7 -39 -2 -40 -3 -43 -40 -2 -25 -7 -35 -15 -31 -8 5 -8 3 1 -7 6 -7 12
-17 12 -22 0 -4 -6 -5 -12 -1 -10 6 -10 4 0 -7 6 -7 12 -17 12 -22 0 -4 -6 -5
-12 -1 -8 5 -8 1 1 -10 13 -15 13 -19 0 -27 -10 -6 -10 -9 -1 -9 6 0 12 -5 12
-11 0 -5 -5 -7 -11 -4 -6 4 -5 -2 2 -13 11 -17 10 -24 -2 -38 -9 -11 -9 -15
-1 -10 7 4 12 1 12 -8 0 -9 -7 -16 -15 -16 -8 0 -14 -5 -12 -12 1 -7 -5 -12
-13 -13 -8 0 -14 -5 -13 -11 1 -5 -9 -11 -23 -12 -13 -1 -24 3 -24 8 0 6 -6 9
-12 7 -10 -1 -13 35 -13 155 l0 158 -25 0 c-14 0 -34 -7 -44 -15z m69 -375 c3
-5 1 -10 -4 -10 -6 0 -11 5 -11 10 0 6 2 10 4 10 3 0 8 -4 11 -10z"/>
<path d="M4143 2416 c1 -6 -4 -10 -11 -8 -9 2 -13 -7 -12 -25 3 -45 1 -53 -15
-53 -8 0 -19 -9 -25 -19 -12 -23 -13 -41 -2 -40 38 6 40 2 42 -128 2 -71 3
-139 3 -153 0 -14 2 -19 4 -12 7 17 23 15 23 -4 0 -8 4 -13 9 -10 5 4 11 1 13
-6 6 -18 90 -16 109 3 15 15 15 18 -3 40 -13 16 -21 20 -24 12 -4 -10 -11 -9
-28 2 -18 12 -23 26 -24 61 -2 34 1 43 10 38 10 -6 10 -4 2 7 -15 20 -16 61
-1 52 9 -5 9 -3 1 8 -14 19 -18 83 -4 74 5 -3 10 -2 10 3 0 5 10 12 23 15 21
6 21 6 3 -8 -11 -8 -15 -15 -9 -15 16 0 43 29 43 46 0 8 5 14 11 14 5 0 7 5 4
10 -3 6 -27 10 -53 11 -26 0 -41 3 -33 6 10 4 11 7 1 13 -8 5 -10 15 -5 26 17
42 13 50 -26 51 -23 0 -37 -4 -36 -11z"/>
<path d="M2787 2343 c3 -9 -4 -13 -21 -13 -17 0 -26 -5 -26 -16 0 -8 -4 -12
-10 -9 -5 3 -12 -6 -16 -20 -3 -13 -10 -22 -15 -19 -5 3 -9 -19 -9 -48 0 -38
3 -49 10 -38 8 12 10 11 10 -7 0 -21 37 -56 56 -52 23 4 35 -2 28 -13 -5 -8 0
-7 11 2 11 9 16 10 11 3 -5 -9 2 -13 25 -13 26 0 31 -3 26 -20 -4 -14 0 -20
11 -20 15 -1 15 -2 -1 -11 -9 -6 -15 -14 -12 -20 4 -5 -3 -9 -15 -9 -12 0 -19
-4 -16 -8 3 -5 -1 -9 -9 -9 -8 0 -11 5 -8 10 4 6 0 8 -10 4 -9 -3 -19 -2 -22
2 -3 5 -14 7 -25 4 -14 -4 -20 0 -20 11 0 9 -7 16 -15 16 -8 0 -15 -6 -15 -12
0 -9 -4 -8 -10 2 -8 12 -10 11 -11 -7 -1 -13 -2 -31 -3 -40 -1 -13 8 -19 27
-21 15 -2 25 -8 22 -13 -4 -5 2 -9 12 -10 98 -6 126 -4 138 8 8 7 25 14 39 15
13 1 22 6 20 10 -3 5 -11 5 -17 1 -7 -3 0 6 16 22 21 22 27 37 27 72 0 29 -5
45 -15 49 -8 4 -12 10 -9 15 3 5 -4 9 -16 9 -12 0 -19 4 -16 9 7 11 -17 21
-49 21 -13 0 -27 5 -31 12 -5 7 -3 8 6 3 8 -5 11 -4 7 2 -4 6 -18 8 -32 5 -23
-4 -25 -2 -25 35 0 39 0 39 41 40 26 1 39 -3 36 -11 -3 -6 7 -12 24 -13 17 -1
29 3 29 10 0 7 4 6 10 -3 9 -13 10 -13 11 0 0 8 2 23 4 33 2 9 -1 17 -6 17 -6
0 -7 5 -4 10 4 6 -5 10 -19 10 -14 0 -26 4 -26 9 0 5 -24 11 -54 13 -40 2 -52
0 -49 -9z"/>
<path d="M3110 2345 c-7 -8 -19 -15 -26 -15 -8 0 -14 -4 -14 -10 0 -5 -7 -10
-15 -10 -8 0 -15 -5 -15 -11 0 -5 -5 -7 -10 -4 -6 4 -10 3 -9 -2 4 -22 -2 -43
-11 -38 -13 8 -12 9 -15 -107 -1 -78 1 -98 12 -98 8 0 12 -3 10 -7 -8 -14 12
-55 23 -48 6 4 9 1 8 -7 -2 -7 7 -14 20 -16 12 -2 20 -8 17 -13 -4 -5 4 -10
17 -10 86 -5 118 -4 118 3 0 5 11 13 24 18 13 5 27 18 31 30 3 11 11 18 16 15
8 -6 11 7 12 62 1 12 5 20 9 17 4 -3 8 1 8 8 0 10 2 10 9 -1 7 -10 10 -10 13
-1 2 7 5 -2 6 -21 2 -53 8 -73 20 -77 7 -2 12 -10 12 -18 0 -8 10 -14 24 -14
13 0 26 -6 29 -13 3 -9 23 -12 63 -11 76 2 76 2 69 14 -4 6 -3 10 2 9 32 -5
43 3 43 31 0 19 -5 30 -14 30 -8 0 -17 6 -19 13 -4 9 -8 8 -16 -3 -10 -15 -14
-16 -47 -19 -8 0 -13 -5 -10 -10 4 -5 -5 -4 -19 2 -14 7 -28 20 -31 30 -3 10
-10 14 -17 10 -7 -4 -5 2 3 12 10 12 10 16 2 11 -10 -6 -12 10 -11 74 1 64 5
80 15 76 10 -4 14 3 14 22 0 21 2 24 10 12 9 -13 14 -8 11 12 -1 9 41 1 48 -9
12 -17 44 -14 62 6 22 23 25 42 7 39 -7 -2 -12 3 -10 10 1 7 -9 12 -29 12 -20
0 -28 4 -23 12 5 8 2 9 -9 5 -10 -3 -17 -3 -17 1 0 4 -11 7 -24 7 -13 0 -24
-4 -23 -10 1 -5 -8 -11 -20 -13 -13 -2 -23 -7 -23 -12 0 -5 -9 -12 -20 -15
-11 -3 -20 -13 -20 -21 0 -8 -5 -14 -11 -14 -5 0 -8 -4 -5 -9 4 -5 2 -11 -3
-13 -5 -1 -11 -18 -13 -37 -3 -23 -10 -35 -22 -37 -10 -1 -16 0 -13 3 3 3 0
25 -8 49 -7 24 -11 44 -8 44 2 0 -2 7 -11 15 -8 8 -19 15 -25 15 -6 0 -11 7
-11 15 0 10 -10 15 -29 15 -16 0 -37 7 -45 16 -12 12 -16 12 -16 2 0 -10 -3
-9 -10 2 -5 8 -10 10 -10 4 0 -7 -7 -15 -16 -18 -14 -5 -15 -4 -4 9 7 8 10 15
7 15 -2 0 -10 -7 -17 -15z m83 -76 c2 -2 9 -13 17 -23 13 -18 13 -19 0 -11
-12 7 -12 5 1 -11 12 -14 16 -37 14 -90 -3 -91 -22 -116 -82 -112 -27 2 -39 7
-36 16 3 6 0 12 -6 12 -6 0 -10 3 -10 8 4 21 -2 53 -9 48 -4 -2 -7 17 -6 42 1
25 6 48 13 50 6 2 11 8 11 13 0 6 -4 8 -10 4 -5 -3 -3 6 5 21 7 15 20 31 27
35 12 8 66 6 71 -2z m147 -124 c0 -2 -6 -8 -13 -14 -10 -8 -14 -7 -14 2 0 8 6
14 14 14 7 0 13 -1 13 -2z"/>
<path d="M3929 2353 c-1 -5 -1 -12 0 -16 1 -4 -4 -7 -11 -6 -34 4 -79 -2 -73
-10 3 -5 -4 -12 -15 -16 -11 -3 -19 -12 -17 -18 1 -7 -4 -11 -10 -9 -7 1 -14
-5 -14 -13 -3 -32 -4 -36 -19 -45 -13 -9 -13 -10 0 -10 12 0 12 -2 1 -9 -9 -6
-10 -11 -2 -15 6 -4 7 -16 3 -29 -7 -19 -8 -39 -3 -95 1 -7 6 -10 11 -7 6 3
10 -3 10 -14 0 -12 6 -21 13 -21 8 0 7 -4 -3 -10 -13 -8 -12 -10 3 -10 10 0
15 -4 12 -10 -4 -6 1 -7 11 -3 12 4 15 3 10 -5 -5 -8 0 -12 14 -12 12 0 18 -4
15 -10 -3 -5 4 -10 17 -11 115 -6 127 -5 132 8 3 7 14 13 25 13 15 0 19 5 14
17 -4 11 -3 14 5 9 8 -5 12 1 12 16 0 18 -2 20 -10 8 -9 -13 -10 -13 -11 0 -1
8 -1 18 0 23 0 4 -6 7 -14 7 -8 0 -15 -6 -15 -13 0 -7 -12 -14 -26 -15 -15 -1
-34 -8 -42 -15 -13 -10 -14 -9 -7 2 6 11 4 13 -8 8 -10 -3 -17 -2 -17 3 0 5
-7 7 -15 4 -9 -4 -15 0 -15 10 0 9 -6 16 -13 16 -9 0 -13 12 -11 38 3 48 2 48
15 35 6 -6 22 -8 38 -4 14 4 54 6 89 4 l62 -3 0 70 c0 45 -4 69 -10 65 -9 -5
-15 16 -11 38 1 5 -3 6 -9 2 -5 -3 -10 -1 -10 4 0 6 -7 11 -15 11 -8 0 -15 5
-15 10 0 6 -9 10 -19 10 -28 0 -52 11 -45 21 3 5 3 9 0 9 -3 0 -7 -3 -7 -7z
m1 -84 c0 -6 5 -7 10 -4 6 3 10 2 10 -3 0 -5 9 -12 20 -15 15 -4 20 -12 18
-34 -2 -29 -3 -29 -60 -29 -34 0 -59 4 -62 11 -7 18 19 60 34 57 10 -2 11 0 2
10 -8 11 -7 14 9 15 10 1 19 -3 19 -8z"/>
<path d="M3971 2224 c0 -11 3 -14 6 -6 3 7 2 16 -1 19 -3 4 -6 -2 -5 -13z"/>
<path d="M3639 2313 c-12 -15 -12 -16 1 -8 13 8 13 7 1 -9 -13 -15 -13 -19 0
-27 8 -5 9 -9 3 -9 -16 0 -12 -43 6 -58 11 -9 12 -12 1 -10 -16 3 -25 -38 -11
-47 6 -4 7 -12 3 -18 -11 -17 -10 -31 2 -39 7 -5 7 -8 0 -8 -15 0 -11 -103 3
-108 7 -2 12 -10 12 -17 0 -17 29 -13 41 6 7 11 9 11 9 1 0 -10 3 -10 15 2 16
15 21 31 7 22 -4 -2 -8 4 -8 14 0 10 3 17 6 15 4 -2 7 9 7 25 0 18 -4 27 -11
23 -6 -3 -6 0 1 7 9 9 9 19 2 33 -8 14 -8 18 1 12 14 -9 10 27 -5 37 -6 5 -5
8 3 8 6 0 12 5 12 11 0 5 -3 8 -7 6 -5 -3 -8 5 -8 18 0 13 3 21 8 18 9 -5 9
-5 -2 35 -6 18 -6 30 -2 27 5 -2 8 9 7 25 -1 28 -3 30 -42 30 -27 0 -46 -6
-55 -17z"/>
<path d="M4303 2324 c3 -4 2 -15 -3 -25 -7 -12 -7 -20 0 -24 6 -4 8 -11 5 -16
-4 -5 0 -9 8 -9 9 0 14 -12 15 -33 1 -18 8 -46 16 -61 8 -16 12 -35 9 -44 -4
-10 -2 -13 5 -8 7 4 13 2 13 -3 1 -6 3 -15 4 -21 1 -5 3 -22 4 -36 1 -16 5
-23 13 -18 7 5 9 2 6 -8 -4 -8 2 -33 12 -56 15 -34 16 -41 4 -46 -8 -3 -14
-13 -14 -21 0 -9 -4 -13 -10 -10 -5 3 -10 1 -10 -4 0 -6 -7 -11 -15 -11 -10 0
-15 -10 -15 -30 0 -19 5 -29 13 -28 6 2 11 -4 9 -12 -2 -13 -1 -13 10 0 13 15
31 22 55 23 7 0 10 4 7 9 -3 4 2 11 10 14 9 3 13 10 10 15 -3 5 0 9 5 9 6 0
11 11 11 25 0 16 6 25 15 25 8 0 14 3 14 8 -5 28 2 52 14 46 7 -5 6 0 -3 11
-9 11 -10 16 -2 11 8 -5 12 0 12 18 0 14 5 28 10 31 6 4 8 11 5 16 -4 5 -2 9
2 9 5 0 10 8 11 18 3 32 7 47 17 62 5 8 10 26 11 39 2 14 8 27 14 29 5 2 10
17 10 33 0 17 4 28 8 25 5 -3 9 1 9 9 0 8 -4 15 -9 15 -4 0 -8 5 -8 11 0 5 4
8 9 4 5 -3 12 -2 15 3 8 13 -74 14 -90 1 -8 -6 -14 -24 -14 -40 0 -16 -4 -29
-9 -29 -5 0 -12 -23 -16 -51 -5 -35 -10 -47 -16 -38 -6 9 -9 -1 -9 -31 0 -25
-5 -52 -10 -60 -8 -13 -10 -12 -10 3 0 9 0 20 1 23 0 3 -8 12 -18 20 -16 12
-16 15 -3 24 10 6 11 10 3 10 -7 0 -13 9 -13 20 0 11 -5 20 -11 20 -5 0 -8 4
-4 9 3 5 1 12 -5 16 -6 4 -8 10 -5 15 3 5 1 20 -4 33 -7 18 -7 27 2 31 7 2 4
5 -5 5 -10 1 -18 8 -18 16 0 11 -11 15 -42 15 -23 0 -38 -3 -35 -6z"/>
</g>
</svg>
